<?xml version="1.0" encoding="UTF-8"?>
<svg xmlns="http://www.w3.org/2000/svg" xmlns:xlink="http://www.w3.org/1999/xlink" width="750pt" height="583.499988pt" viewBox="0 0 750 583.499988" version="1.2">
<defs>
<clipPath id="clip1">
  <path d="M 0.320312 499 L 749.679688 499 L 749.679688 583 L 0.320312 583 Z M 0.320312 499 "/>
</clipPath>
<clipPath id="clip2">
  <path d="M 0.320312 0 L 749.679688 0 L 749.679688 84 L 0.320312 84 Z M 0.320312 0 "/>
</clipPath>
<clipPath id="clip3">
  <path d="M 0.320312 249 L 749.679688 249 L 749.679688 334 L 0.320312 334 Z M 0.320312 249 "/>
</clipPath>
</defs>
<g id="surface1">
<g clip-path="url(#clip1)" clip-rule="nonzero">
<path style=" stroke:none;fill-rule:nonzero;fill:rgb(100%,100%,100%);fill-opacity:1;" d="M 707.929688 499.714844 L 42.070312 499.714844 C 19.148438 499.714844 0.453125 518.585938 0.453125 541.359375 C 0.453125 564.292969 19.148438 583 42.070312 583 L 707.929688 583 C 730.6875 583 749.546875 564.292969 749.546875 541.359375 C 749.546875 518.585938 730.6875 499.714844 707.929688 499.714844 "/>
</g>
<g clip-path="url(#clip2)" clip-rule="nonzero">
<path style=" stroke:none;fill-rule:nonzero;fill:rgb(100%,100%,100%);fill-opacity:1;" d="M 42.070312 83.285156 L 707.929688 83.285156 C 730.6875 83.285156 749.546875 64.417969 749.546875 41.644531 C 749.546875 18.871094 730.6875 0 707.929688 0 L 42.070312 0 C 19.148438 0 0.453125 18.871094 0.453125 41.644531 C 0.453125 64.417969 19.148438 83.285156 42.070312 83.285156 "/>
</g>
<g clip-path="url(#clip3)" clip-rule="nonzero">
<path style=" stroke:none;fill-rule:nonzero;fill:rgb(100%,100%,100%);fill-opacity:1;" d="M 707.929688 249.855469 L 42.070312 249.855469 C 19.148438 249.855469 0.453125 268.726562 0.453125 291.5 C 0.453125 314.273438 19.148438 333.144531 42.070312 333.144531 L 707.929688 333.144531 C 730.6875 333.144531 749.546875 314.273438 749.546875 291.5 C 749.546875 268.726562 730.6875 249.855469 707.929688 249.855469 "/>
</g>
</g>
</svg>
